<svg version="1.1" id="Layer_1" xmlns="http://www.w3.org/2000/svg" x="0" y="0" viewBox="0 0 884.6 397" xml:space="preserve"><style>.st0{fill:#3b6bf2}.st2{fill:#4b85f9}</style><path class="st0" d="M653.1 235l-23.6 40.6c-2.8 4.9.9 10.9 6.9 10.9h47.2c6 0 9.8-6 6.9-10.9L666.9 235c-2.9-5.1-10.9-5.1-13.8 0z"/><path d="M200.3 236.8l47.3 147c4.2 13.1 20.6 17.6 30.9 8.4l93.8-84.1c10.3-9.2 7.7-26-5-31.6l-141.1-62.9c-15.1-6.8-31 7.5-25.9 23.2z" fill="#ebebeb"/><path class="st0" d="M198.7 231.8l21.1 65.4c2.6 8.2 12.7 11.1 19.3 5.6l50.3-42c6.9-5.7 5.4-16.7-2.8-20.4l-65.1-29c-13.3-5.9-27.3 6.6-22.8 20.4z"/><path class="st2" d="M178.1 64.5c62.6 0 113.4 50.8 113.6 113.4 0 62.6-51 113.6-113.6 113.6S64.5 240.7 64.5 178.1s51-113.6 113.6-113.6m0-64.5C79.9 0 0 79.9 0 178.1S79.9 356 178.1 356s178.1-79.9 178.1-178.1C356 79.9 276.3 0 178.1 0z"/><path class="st0" d="M426.3 277.2h-5.7c-11.9 0-21.6-9.7-21.6-21.6V121.1c0-11.9 9.7-21.6 21.6-21.6h5.7c11.9 0 21.6 9.7 21.6 21.6v134.5c.1 11.9-9.7 21.6-21.6 21.6zm370.4 0H791c-11.9 0-21.6-9.7-21.6-21.6V133.9c0-11.9 9.7-21.6 21.6-21.6h27.4v143.4c0 11.8-9.8 21.5-21.7 21.5zm-212.5-4.5c-11.7-6.7-15.7-21.8-9-33.5l64.4-111.5c6.7-11.7 21.8-15.7 33.5-9 11.7 6.7 15.7 21.8 9 33.5l-64.4 111.5c-6.8 11.7-21.8 15.7-33.5 9z"/><path class="st2" d="M738.6 271c13.7-7.9 18.4-25.6 10.5-39.3L689 127.6c-7.9-13.7-25.6-18.4-39.3-10.5-13.7 7.9-18.4 25.6-10.5 39.3l60.1 104.1c8 13.7 25.6 18.5 39.3 10.5zM399 255.6v-15.5c0-11.9 9.7-21.6 21.6-21.6h113.7c11.9 0 21.6 9.7 21.6 21.6v15.4c0 11.9-9.7 21.6-21.6 21.6H420.6c-11.9.1-21.6-9.6-21.6-21.5z"/><ellipse class="st0" cx="818.4" cy="151.8" rx="39.6" ry="39.5"/><path class="st2" d="M817.9 179.9H836c26.7 0 48.6 21.9 48.6 48.6 0 26.7-21.9 48.6-48.6 48.6h-45c-11.9 0-21.6-9.7-21.6-21.6v-26.9c0-26.9 21.8-48.7 48.5-48.7z"/></svg>